<svg xmlns="http://www.w3.org/2000/svg" xmlns:xlink="http://www.w3.org/1999/xlink" width="500" zoomAndPan="magnify" viewBox="0 0 375 374.999991" height="500" preserveAspectRatio="xMidYMid meet" version="1.0"><defs><clipPath id="6e6f2fa232"><path d="M 27.421875 0 L 347.671875 0 L 347.671875 375 L 27.421875 375 Z M 27.421875 0 " clip-rule="nonzero"/></clipPath></defs><g clip-path="url(#6e6f2fa232)"><path fill="#fbc50c" d="M 265.589844 125.199219 L 244.304688 125.199219 L 256.957031 110.566406 C 259.863281 111.257812 262.863281 111.628906 266.003906 111.628906 C 287.148438 111.628906 304.414062 94.453125 304.550781 73.308594 C 304.691406 52.027344 287.472656 34.625 266.003906 34.53125 C 244.859375 34.53125 227.546875 51.703125 227.457031 72.847656 C 227.410156 78.296875 228.519531 83.699219 230.6875 88.636719 L 199.570312 125.199219 L 185.953125 125.199219 L 147.082031 77.140625 C 151.976562 69.246094 154.652344 60.105469 154.746094 50.734375 C 154.839844 37.253906 149.667969 24.558594 140.203125 15.003906 C 130.738281 5.402344 118.136719 0.09375 104.332031 0 C 76.726562 0 54.105469 22.484375 53.921875 50.136719 C 53.828125 63.617188 59 76.3125 68.464844 85.914062 C 77.925781 95.515625 90.574219 100.824219 104.332031 100.917969 C 107.933594 100.917969 111.535156 100.546875 114.996094 99.808594 L 135.449219 125.292969 L 109.367188 125.292969 C 72.480469 125.199219 27.515625 136.324219 27.515625 212.542969 L 27.515625 293.101562 C 27.515625 338.160156 64.355469 375 109.410156 375 L 265.589844 375 C 310.597656 375 347.484375 338.160156 347.484375 293.101562 L 347.484375 212.542969 C 347.484375 144.820312 302.472656 125.199219 265.589844 125.199219 Z M 273.804688 327.679688 L 101.195312 327.679688 C 88.5 327.679688 77.789062 316.96875 77.789062 304.273438 L 77.878906 212.542969 L 77.878906 198.554688 C 78.34375 186.230469 88.820312 175.980469 101.195312 175.980469 L 273.804688 175.980469 C 286.5 175.980469 297.210938 186.691406 297.210938 199.386719 L 297.121094 291.164062 L 297.210938 291.164062 L 297.210938 304.273438 C 297.210938 316.96875 286.5 327.679688 273.804688 327.679688 Z M 273.804688 327.679688 " fill-opacity="1" fill-rule="nonzero"/></g><path fill="#ffffff" d="M 152.667969 278.976562 C 152.574219 264.109375 152.484375 239.734375 152.390625 224.871094 C 152.300781 210.003906 163.425781 203.867188 176.167969 211.207031 C 188.863281 218.59375 210.097656 230.640625 222.792969 238.027344 C 235.488281 245.414062 235.765625 257.554688 223.117188 265.082031 C 210.46875 272.605469 189.09375 284.886719 176.445312 292.363281 C 163.839844 299.890625 152.714844 293.839844 152.667969 278.976562 Z M 152.667969 278.976562 " fill-opacity="1" fill-rule="nonzero"/></svg>