<svg xmlns="http://www.w3.org/2000/svg" xmlns:xlink="http://www.w3.org/1999/xlink" width="2000" zoomAndPan="magnify" viewBox="0 0 1500 374.999991" height="500" preserveAspectRatio="xMidYMid meet" version="1.0"><defs><g/><clipPath id="21c1efa0cf"><path d="M 7.667969 8.25 L 311.417969 8.25 L 311.417969 363.75 L 7.667969 363.75 Z M 7.667969 8.25 " clip-rule="nonzero"/></clipPath></defs><g clip-path="url(#21c1efa0cf)"><path fill="#fbc50c" d="M 233.675781 127.058594 L 213.480469 127.058594 L 225.484375 113.167969 C 228.242188 113.828125 231.089844 114.175781 234.070312 114.175781 C 254.132812 114.175781 270.515625 97.882812 270.648438 77.816406 C 270.78125 57.621094 254.441406 41.105469 234.070312 41.019531 C 214.003906 41.019531 197.578125 57.316406 197.488281 77.378906 C 197.445312 82.546875 198.496094 87.671875 200.554688 92.359375 L 171.03125 127.058594 L 158.105469 127.058594 L 121.21875 81.453125 C 125.863281 73.960938 128.40625 65.289062 128.492188 56.394531 C 128.578125 43.601562 123.671875 31.554688 114.691406 22.488281 C 105.710938 13.375 93.753906 8.335938 80.652344 8.25 C 54.457031 8.25 32.992188 29.585938 32.816406 55.824219 C 32.726562 68.617188 37.636719 80.664062 46.617188 89.777344 C 55.597656 98.886719 67.597656 103.925781 80.652344 104.015625 C 84.070312 104.015625 87.488281 103.664062 90.773438 102.960938 L 110.179688 127.144531 L 85.429688 127.144531 C 50.425781 127.058594 7.757812 137.613281 7.757812 209.941406 L 7.757812 286.386719 C 7.757812 329.144531 42.714844 364.101562 85.472656 364.101562 L 233.675781 364.101562 C 276.386719 364.101562 311.390625 329.144531 311.390625 286.386719 L 311.390625 209.941406 C 311.390625 145.675781 268.675781 127.058594 233.675781 127.058594 Z M 241.472656 319.199219 L 77.675781 319.199219 C 65.628906 319.199219 55.464844 309.035156 55.464844 296.988281 L 55.550781 209.941406 L 55.550781 196.667969 C 55.992188 184.972656 65.933594 175.246094 77.675781 175.246094 L 241.472656 175.246094 C 253.519531 175.246094 263.683594 185.410156 263.683594 197.457031 L 263.597656 284.546875 L 263.683594 284.546875 L 263.683594 296.988281 C 263.683594 309.035156 253.519531 319.199219 241.472656 319.199219 Z M 241.472656 319.199219 " fill-opacity="1" fill-rule="nonzero"/></g><path fill="#ffffff" d="M 126.519531 272.980469 C 126.433594 258.875 126.347656 235.746094 126.257812 221.636719 C 126.171875 207.53125 136.726562 201.707031 148.820312 208.671875 C 160.867188 215.679688 181.019531 227.113281 193.066406 234.125 C 205.113281 241.132812 205.375 252.652344 193.371094 259.792969 C 181.367188 266.9375 161.085938 278.589844 149.082031 285.683594 C 137.121094 292.824219 126.566406 287.085938 126.519531 272.980469 Z M 126.519531 272.980469 " fill-opacity="1" fill-rule="nonzero"/><g fill="#ffffff" fill-opacity="1"><g transform="translate(336.434264, 289.231759)"><g><path d="M 60.703125 0 L 20.15625 0 L 20.15625 -162.1875 L 60.703125 -162.1875 Z M 60.703125 0 "/></g></g></g><g fill="#ffffff" fill-opacity="1"><g transform="translate(408.024985, 289.231759)"><g><path d="M 86.1875 -123.5 C 95.613281 -123.5 103.992188 -121.296875 111.328125 -116.890625 C 118.671875 -112.492188 124.425781 -106.429688 128.59375 -98.703125 C 132.757812 -90.984375 134.84375 -82.179688 134.84375 -72.296875 L 134.84375 0 L 96.15625 0 L 96.15625 -64.1875 C 96.15625 -71.75 94.335938 -77.769531 90.703125 -82.25 C 87.078125 -86.726562 81.941406 -88.96875 75.296875 -88.96875 C 68.816406 -88.96875 63.53125 -86.6875 59.4375 -82.125 C 55.34375 -77.570312 53.296875 -71.59375 53.296875 -64.1875 L 53.296875 0 L 14.59375 0 L 14.59375 -120.484375 L 50.515625 -120.484375 L 50.515625 -108.90625 C 60.085938 -118.632812 71.976562 -123.5 86.1875 -123.5 Z M 86.1875 -123.5 "/></g></g></g><g fill="#ffffff" fill-opacity="1"><g transform="translate(547.501376, 289.231759)"><g><path d="M 87.8125 -61.859375 L 140.40625 0 L 95.6875 0 L 54.453125 -49.578125 L 54.453125 0 L 15.75 0 L 15.75 -166.828125 L 54.453125 -166.828125 L 54.453125 -72.515625 L 93.609375 -120.484375 L 136.703125 -120.484375 Z M 87.8125 -61.859375 "/></g></g></g><g fill="#ffffff" fill-opacity="1"><g transform="translate(678.405163, 289.231759)"><g><path d="M 73.453125 3.015625 C 61.867188 3.015625 50.9375 0.46875 40.65625 -4.625 C 30.382812 -9.726562 22.117188 -17.066406 15.859375 -26.640625 C 9.609375 -36.222656 6.484375 -47.425781 6.484375 -60.25 C 6.484375 -72.914062 9.609375 -84.035156 15.859375 -93.609375 C 22.117188 -103.179688 30.382812 -110.554688 40.65625 -115.734375 C 50.9375 -120.910156 61.867188 -123.5 73.453125 -123.5 C 85.035156 -123.5 95.921875 -120.910156 106.109375 -115.734375 C 116.304688 -110.554688 124.535156 -103.179688 130.796875 -93.609375 C 137.054688 -84.035156 140.1875 -72.914062 140.1875 -60.25 C 140.1875 -47.425781 137.054688 -36.222656 130.796875 -26.640625 C 124.535156 -17.066406 116.304688 -9.726562 106.109375 -4.625 C 95.921875 0.46875 85.035156 3.015625 73.453125 3.015625 Z M 73.453125 -31.515625 C 81.796875 -31.515625 88.628906 -34.21875 93.953125 -39.625 C 99.285156 -45.03125 101.953125 -51.90625 101.953125 -60.25 C 101.953125 -68.425781 99.285156 -75.253906 93.953125 -80.734375 C 88.628906 -86.222656 81.796875 -88.96875 73.453125 -88.96875 C 65.109375 -88.96875 58.269531 -86.222656 52.9375 -80.734375 C 47.613281 -75.253906 44.953125 -68.425781 44.953125 -60.25 C 44.953125 -51.90625 47.613281 -45.03125 52.9375 -39.625 C 58.269531 -34.21875 65.109375 -31.515625 73.453125 -31.515625 Z M 73.453125 -31.515625 "/></g></g></g><g fill="#ffffff" fill-opacity="1"><g transform="translate(816.027993, 289.231759)"><g><path d="M 86.1875 -123.5 C 95.613281 -123.5 103.992188 -121.296875 111.328125 -116.890625 C 118.671875 -112.492188 124.425781 -106.429688 128.59375 -98.703125 C 132.757812 -90.984375 134.84375 -82.179688 134.84375 -72.296875 L 134.84375 0 L 96.15625 0 L 96.15625 -64.1875 C 96.15625 -71.75 94.335938 -77.769531 90.703125 -82.25 C 87.078125 -86.726562 81.941406 -88.96875 75.296875 -88.96875 C 68.816406 -88.96875 63.53125 -86.6875 59.4375 -82.125 C 55.34375 -77.570312 53.296875 -71.59375 53.296875 -64.1875 L 53.296875 0 L 14.59375 0 L 14.59375 -120.484375 L 50.515625 -120.484375 L 50.515625 -108.90625 C 60.085938 -118.632812 71.976562 -123.5 86.1875 -123.5 Z M 86.1875 -123.5 "/></g></g></g><g fill="#ffffff" fill-opacity="1"><g transform="translate(955.504365, 289.231759)"><g><path d="M 104.03125 -120.484375 L 139.71875 -120.484375 L 139.71875 0 L 104.03125 0 L 104.03125 -11.8125 C 95.070312 -1.925781 82.484375 3.015625 66.265625 3.015625 C 56.378906 3.015625 46.878906 0.425781 37.765625 -4.75 C 28.648438 -9.925781 21.234375 -17.335938 15.515625 -26.984375 C 9.804688 -36.640625 6.953125 -47.726562 6.953125 -60.25 C 6.953125 -72.757812 9.804688 -83.835938 15.515625 -93.484375 C 21.234375 -103.140625 28.648438 -110.554688 37.765625 -115.734375 C 46.878906 -120.910156 56.378906 -123.5 66.265625 -123.5 C 82.328125 -123.5 94.914062 -118.554688 104.03125 -108.671875 Z M 74.140625 -31.28125 C 82.484375 -31.28125 89.394531 -34.019531 94.875 -39.5 C 100.363281 -44.988281 103.109375 -51.90625 103.109375 -60.25 C 103.109375 -68.582031 100.363281 -75.488281 94.875 -80.96875 C 89.394531 -86.457031 82.484375 -89.203125 74.140625 -89.203125 C 65.804688 -89.203125 58.894531 -86.457031 53.40625 -80.96875 C 47.925781 -75.488281 45.1875 -68.582031 45.1875 -60.25 C 45.1875 -51.90625 47.925781 -44.988281 53.40625 -39.5 C 58.894531 -34.019531 65.804688 -31.28125 74.140625 -31.28125 Z M 74.140625 -31.28125 "/></g></g></g><g fill="#ffffff" fill-opacity="1"><g transform="translate(1101.004657, 289.231759)"><g><path d="M 89.4375 -123.5 C 99.320312 -123.5 108.820312 -120.867188 117.9375 -115.609375 C 127.050781 -110.359375 134.460938 -102.945312 140.171875 -93.375 C 145.890625 -83.800781 148.75 -72.757812 148.75 -60.25 C 148.75 -47.726562 145.890625 -36.640625 140.171875 -26.984375 C 134.460938 -17.335938 127.050781 -9.925781 117.9375 -4.75 C 108.820312 0.425781 99.320312 3.015625 89.4375 3.015625 C 73.21875 3.015625 60.628906 -1.925781 51.671875 -11.8125 L 51.671875 0 L 15.75 0 L 15.75 -166.828125 L 54.453125 -166.828125 L 54.453125 -111.21875 C 63.097656 -119.40625 74.757812 -123.5 89.4375 -123.5 Z M 81.5625 -31.28125 C 89.90625 -31.28125 96.816406 -34.019531 102.296875 -39.5 C 107.773438 -44.988281 110.515625 -51.90625 110.515625 -60.25 C 110.515625 -68.582031 107.773438 -75.488281 102.296875 -80.96875 C 96.816406 -86.457031 89.90625 -89.203125 81.5625 -89.203125 C 73.21875 -89.203125 66.300781 -86.457031 60.8125 -80.96875 C 55.332031 -75.488281 52.59375 -68.582031 52.59375 -60.25 C 52.59375 -51.90625 55.332031 -44.988281 60.8125 -39.5 C 66.300781 -34.019531 73.21875 -31.28125 81.5625 -31.28125 Z M 81.5625 -31.28125 "/></g></g></g><g fill="#fcc509" fill-opacity="1"><g transform="translate(1219.521394, 289.231759)"><g><path d="M 73.6875 0 L 33.140625 0 L 57.234375 -125.578125 L 17.609375 -125.578125 L 24.5625 -162.1875 L 144.34375 -162.1875 L 137.40625 -125.578125 L 97.78125 -125.578125 Z M 73.6875 0 "/></g></g></g><g fill="#fcc509" fill-opacity="1"><g transform="translate(1339.767351, 289.231759)"><g><path d="M 62.5625 -44.25 L 104.96875 -120.484375 L 146.4375 -120.484375 L 72.75 0 L 38.234375 0 L 10.890625 -120.484375 L 49.125 -120.484375 Z M 62.5625 -44.25 "/></g></g></g><g fill="#fcc509" fill-opacity="1"><g transform="translate(377.614152, 356.234452)"><g><path d="M 17.59375 0 L 9.5 0 L 9.5 -24.515625 L 0.625 -24.515625 L 0.625 -30.71875 L 26.453125 -30.71875 L 26.453125 -24.515625 L 17.59375 -24.515625 Z M 17.59375 0 "/></g></g></g><g fill="#fcc509" fill-opacity="1"><g transform="translate(416.627095, 356.234452)"><g><path d="M 15.0625 -43.84375 L 24.515625 -43.84375 L 17.640625 -34.65625 L 10.875 -34.65625 Z M 2.46875 -30.71875 L 25.625 -30.71875 L 25.625 -24.515625 L 10.546875 -24.515625 L 10.546875 -18.375 L 22 -18.375 L 22 -12.078125 L 10.546875 -12.078125 L 10.546875 -6.1875 L 25.625 -6.1875 L 25.625 0 L 2.46875 0 Z M 2.46875 -30.71875 "/></g></g></g><g fill="#fcc509" fill-opacity="1"><g transform="translate(455.850084, 356.234452)"><g><path d="M 2.46875 -30.71875 L 10.546875 -30.71875 L 10.546875 -6.1875 L 25.625 -6.1875 L 25.625 0 L 2.46875 0 Z M 2.46875 -30.71875 "/></g></g></g><g fill="#fcc509" fill-opacity="1"><g transform="translate(494.547961, 356.234452)"><g><path d="M 15.0625 -43.84375 L 24.515625 -43.84375 L 17.640625 -34.65625 L 10.875 -34.65625 Z M 2.46875 -30.71875 L 25.625 -30.71875 L 25.625 -24.515625 L 10.546875 -24.515625 L 10.546875 -18.375 L 22 -18.375 L 22 -12.078125 L 10.546875 -12.078125 L 10.546875 -6.1875 L 25.625 -6.1875 L 25.625 0 L 2.46875 0 Z M 2.46875 -30.71875 "/></g></g></g><g fill="#fcc509" fill-opacity="1"><g transform="translate(533.770946, 356.234452)"><g/></g></g><g fill="#fcc509" fill-opacity="1"><g transform="translate(555.613964, 356.234452)"><g><path d="M 30.296875 -10.296875 C 30.296875 -6.929688 29.316406 -4.375 27.359375 -2.625 C 25.117188 -0.664062 21.507812 0.3125 16.53125 0.3125 C 12.613281 0.3125 9.289062 -0.4375 6.5625 -1.9375 C 3.832031 -3.445312 2.207031 -5.828125 1.6875 -9.078125 L 11.03125 -9.078125 C 11.238281 -6.941406 13.09375 -5.875 16.59375 -5.875 C 18.726562 -5.875 20.195312 -6.101562 21 -6.5625 C 21.800781 -7.019531 22.203125 -7.828125 22.203125 -8.984375 C 22.203125 -9.296875 22.085938 -9.59375 21.859375 -9.875 C 21.640625 -10.15625 21.289062 -10.398438 20.8125 -10.609375 C 20.34375 -10.816406 19.867188 -11.003906 19.390625 -11.171875 C 18.921875 -11.347656 18.3125 -11.523438 17.5625 -11.703125 C 16.8125 -11.878906 16.179688 -12.019531 15.671875 -12.125 C 15.160156 -12.226562 14.492188 -12.347656 13.671875 -12.484375 C 12.847656 -12.628906 12.28125 -12.738281 11.96875 -12.8125 C 10.144531 -13.125 8.5 -13.613281 7.03125 -14.28125 C 3.5 -15.78125 1.734375 -18.109375 1.734375 -21.265625 C 1.734375 -24.453125 2.695312 -26.863281 4.625 -28.5 C 6.789062 -30.363281 10.359375 -31.296875 15.328125 -31.296875 C 19.179688 -31.296875 22.515625 -30.453125 25.328125 -28.765625 C 28.148438 -27.085938 29.5625 -24.757812 29.5625 -21.78125 L 20.15625 -21.78125 C 19.976562 -23.988281 18.382812 -25.09375 15.375 -25.09375 C 13.664062 -25.09375 12.3125 -24.863281 11.3125 -24.40625 C 10.3125 -23.957031 9.8125 -23.4375 9.8125 -22.84375 C 9.8125 -22.414062 9.957031 -22.007812 10.25 -21.625 C 10.550781 -21.238281 11.023438 -20.894531 11.671875 -20.59375 C 12.328125 -20.300781 12.929688 -20.050781 13.484375 -19.84375 C 14.046875 -19.632812 14.816406 -19.414062 15.796875 -19.1875 C 16.773438 -18.957031 17.5 -18.796875 17.96875 -18.703125 C 18.445312 -18.617188 19.144531 -18.492188 20.0625 -18.328125 C 21.8125 -17.972656 23.453125 -17.5 24.984375 -16.90625 C 28.523438 -15.46875 30.296875 -13.265625 30.296875 -10.296875 Z M 30.296875 -10.296875 "/></g></g></g><g fill="#fcc509" fill-opacity="1"><g transform="translate(599.510046, 356.234452)"><g><path d="M 32.703125 0 L 24.15625 0 L 22 -6.25 L 11.078125 -6.25 L 8.921875 0 L 0.375 0 L 10.453125 -30.71875 L 22.625 -30.71875 Z M 20.625 -12.59375 L 16.53125 -25.203125 L 12.4375 -12.59375 Z M 20.625 -12.59375 "/></g></g></g><g fill="#fcc509" fill-opacity="1"><g transform="translate(644.508838, 356.234452)"><g><path d="M 10.546875 -18.6875 L 10.546875 0 L 2.46875 0 L 2.46875 -30.71875 L 11.546875 -30.71875 L 23.671875 -12.5 L 23.671875 -30.71875 L 31.765625 -30.71875 L 31.765625 0 L 22.890625 0 Z M 10.546875 -18.6875 "/></g></g></g><g fill="#fcc509" fill-opacity="1"><g transform="translate(690.662768, 356.234452)"><g><path d="M 30.296875 -10.296875 C 30.296875 -6.929688 29.316406 -4.375 27.359375 -2.625 C 25.117188 -0.664062 21.507812 0.3125 16.53125 0.3125 C 12.613281 0.3125 9.289062 -0.4375 6.5625 -1.9375 C 3.832031 -3.445312 2.207031 -5.828125 1.6875 -9.078125 L 11.03125 -9.078125 C 11.238281 -6.941406 13.09375 -5.875 16.59375 -5.875 C 18.726562 -5.875 20.195312 -6.101562 21 -6.5625 C 21.800781 -7.019531 22.203125 -7.828125 22.203125 -8.984375 C 22.203125 -9.296875 22.085938 -9.59375 21.859375 -9.875 C 21.640625 -10.15625 21.289062 -10.398438 20.8125 -10.609375 C 20.34375 -10.816406 19.867188 -11.003906 19.390625 -11.171875 C 18.921875 -11.347656 18.3125 -11.523438 17.5625 -11.703125 C 16.8125 -11.878906 16.179688 -12.019531 15.671875 -12.125 C 15.160156 -12.226562 14.492188 -12.347656 13.671875 -12.484375 C 12.847656 -12.628906 12.28125 -12.738281 11.96875 -12.8125 C 10.144531 -13.125 8.5 -13.613281 7.03125 -14.28125 C 3.5 -15.78125 1.734375 -18.109375 1.734375 -21.265625 C 1.734375 -24.453125 2.695312 -26.863281 4.625 -28.5 C 6.789062 -30.363281 10.359375 -31.296875 15.328125 -31.296875 C 19.179688 -31.296875 22.515625 -30.453125 25.328125 -28.765625 C 28.148438 -27.085938 29.5625 -24.757812 29.5625 -21.78125 L 20.15625 -21.78125 C 19.976562 -23.988281 18.382812 -25.09375 15.375 -25.09375 C 13.664062 -25.09375 12.3125 -24.863281 11.3125 -24.40625 C 10.3125 -23.957031 9.8125 -23.4375 9.8125 -22.84375 C 9.8125 -22.414062 9.957031 -22.007812 10.25 -21.625 C 10.550781 -21.238281 11.023438 -20.894531 11.671875 -20.59375 C 12.328125 -20.300781 12.929688 -20.050781 13.484375 -19.84375 C 14.046875 -19.632812 14.816406 -19.414062 15.796875 -19.1875 C 16.773438 -18.957031 17.5 -18.796875 17.96875 -18.703125 C 18.445312 -18.617188 19.144531 -18.492188 20.0625 -18.328125 C 21.8125 -17.972656 23.453125 -17.5 24.984375 -16.90625 C 28.523438 -15.46875 30.296875 -13.265625 30.296875 -10.296875 Z M 30.296875 -10.296875 "/></g></g></g><g fill="#fcc509" fill-opacity="1"><g transform="translate(734.55885, 356.234452)"><g/></g></g><g fill="#fcc509" fill-opacity="1"><g transform="translate(756.401868, 356.234452)"><g><path d="M 2.46875 -30.71875 L 25.5625 -30.71875 L 25.5625 -24.515625 L 10.546875 -24.515625 L 10.546875 -16.90625 L 23.46875 -16.90625 L 23.46875 -10.609375 L 10.546875 -10.609375 L 10.546875 0 L 2.46875 0 Z M 2.46875 -30.71875 "/></g></g></g><g fill="#fcc509" fill-opacity="1"><g transform="translate(795.047259, 356.234452)"><g><path d="M 29.078125 -19.84375 C 29.078125 -18.0625 28.613281 -16.296875 27.6875 -14.546875 C 26.757812 -12.796875 25.40625 -11.378906 23.625 -10.296875 L 28.5 0 L 19.578125 0 L 15.375 -8.921875 L 10.546875 -8.921875 L 10.546875 0 L 2.46875 0 L 2.46875 -30.71875 L 16.75 -30.71875 C 20.8125 -30.71875 23.878906 -29.675781 25.953125 -27.59375 C 28.035156 -25.507812 29.078125 -22.925781 29.078125 -19.84375 Z M 10.546875 -15.0625 L 16.375 -15.0625 C 17.738281 -15.0625 18.859375 -15.488281 19.734375 -16.34375 C 20.609375 -17.207031 21.046875 -18.351562 21.046875 -19.78125 C 21.046875 -21.21875 20.609375 -22.363281 19.734375 -23.21875 C 18.859375 -24.082031 17.738281 -24.515625 16.375 -24.515625 L 10.546875 -24.515625 Z M 10.546875 -15.0625 "/></g></g></g><g fill="#fcc509" fill-opacity="1"><g transform="translate(837.210625, 356.234452)"><g><path d="M 17.21875 0.3125 C 11.863281 0.3125 7.75 -1.453125 4.875 -4.984375 C 2.570312 -7.816406 1.421875 -11.175781 1.421875 -15.0625 C 1.421875 -19.195312 2.570312 -22.769531 4.875 -25.78125 C 7.75 -29.457031 11.863281 -31.296875 17.21875 -31.296875 C 22.539062 -31.296875 26.671875 -29.457031 29.609375 -25.78125 C 31.878906 -22.84375 33.015625 -19.269531 33.015625 -15.0625 C 33.015625 -11.144531 31.878906 -7.785156 29.609375 -4.984375 C 26.671875 -1.453125 22.539062 0.3125 17.21875 0.3125 Z M 11.578125 -8.390625 C 12.960938 -6.710938 14.84375 -5.875 17.21875 -5.875 C 19.601562 -5.875 21.484375 -6.710938 22.859375 -8.390625 C 24.242188 -10.078125 24.9375 -12.300781 24.9375 -15.0625 C 24.9375 -18.007812 24.253906 -20.414062 22.890625 -22.28125 C 21.523438 -24.15625 19.632812 -25.09375 17.21875 -25.09375 C 14.800781 -25.09375 12.910156 -24.15625 11.546875 -22.28125 C 10.179688 -20.414062 9.5 -18.007812 9.5 -15.0625 C 9.5 -12.300781 10.191406 -10.078125 11.578125 -8.390625 Z M 11.578125 -8.390625 "/></g></g></g><g fill="#fcc509" fill-opacity="1"><g transform="translate(883.574585, 356.234452)"><g><path d="M 10.546875 -18.6875 L 10.546875 0 L 2.46875 0 L 2.46875 -30.71875 L 11.546875 -30.71875 L 23.671875 -12.5 L 23.671875 -30.71875 L 31.765625 -30.71875 L 31.765625 0 L 22.890625 0 Z M 10.546875 -18.6875 "/></g></g></g><g fill="#fcc509" fill-opacity="1"><g transform="translate(929.728499, 356.234452)"><g><path d="M 17.59375 0 L 9.5 0 L 9.5 -24.515625 L 0.625 -24.515625 L 0.625 -30.71875 L 26.453125 -30.71875 L 26.453125 -24.515625 L 17.59375 -24.515625 Z M 17.59375 0 "/></g></g></g><g fill="#fcc509" fill-opacity="1"><g transform="translate(968.741471, 356.234452)"><g><path d="M 2.515625 -30.71875 L 10.609375 -30.71875 L 10.609375 0 L 2.515625 0 Z M 2.515625 -30.71875 "/></g></g></g><g fill="#fcc509" fill-opacity="1"><g transform="translate(993.787395, 356.234452)"><g><path d="M 17.75 -33.125 L 10.03125 -33.125 L 4.3125 -44.890625 L 12.75 -44.890625 Z M 2.46875 -30.71875 L 25.625 -30.71875 L 25.625 -24.515625 L 10.546875 -24.515625 L 10.546875 -18.375 L 22 -18.375 L 22 -12.078125 L 10.546875 -12.078125 L 10.546875 -6.1875 L 25.625 -6.1875 L 25.625 0 L 2.46875 0 Z M 2.46875 -30.71875 "/></g></g></g><g fill="#fcc509" fill-opacity="1"><g transform="translate(1033.01038, 356.234452)"><g><path d="M 29.078125 -19.84375 C 29.078125 -18.0625 28.613281 -16.296875 27.6875 -14.546875 C 26.757812 -12.796875 25.40625 -11.378906 23.625 -10.296875 L 28.5 0 L 19.578125 0 L 15.375 -8.921875 L 10.546875 -8.921875 L 10.546875 0 L 2.46875 0 L 2.46875 -30.71875 L 16.75 -30.71875 C 20.8125 -30.71875 23.878906 -29.675781 25.953125 -27.59375 C 28.035156 -25.507812 29.078125 -22.925781 29.078125 -19.84375 Z M 10.546875 -15.0625 L 16.375 -15.0625 C 17.738281 -15.0625 18.859375 -15.488281 19.734375 -16.34375 C 20.609375 -17.207031 21.046875 -18.351562 21.046875 -19.78125 C 21.046875 -21.21875 20.609375 -22.363281 19.734375 -23.21875 C 18.859375 -24.082031 17.738281 -24.515625 16.375 -24.515625 L 10.546875 -24.515625 Z M 10.546875 -15.0625 "/></g></g></g><g fill="#fcc509" fill-opacity="1"><g transform="translate(1075.173746, 356.234452)"><g><path d="M 2.46875 -30.71875 L 25.625 -30.71875 L 25.625 -24.515625 L 10.546875 -24.515625 L 10.546875 -18.375 L 22 -18.375 L 22 -12.078125 L 10.546875 -12.078125 L 10.546875 -6.1875 L 25.625 -6.1875 L 25.625 0 L 2.46875 0 Z M 2.46875 -30.71875 "/></g></g></g><g fill="#fcc509" fill-opacity="1"><g transform="translate(1114.396731, 356.234452)"><g><path d="M 30.296875 -10.296875 C 30.296875 -6.929688 29.316406 -4.375 27.359375 -2.625 C 25.117188 -0.664062 21.507812 0.3125 16.53125 0.3125 C 12.613281 0.3125 9.289062 -0.4375 6.5625 -1.9375 C 3.832031 -3.445312 2.207031 -5.828125 1.6875 -9.078125 L 11.03125 -9.078125 C 11.238281 -6.941406 13.09375 -5.875 16.59375 -5.875 C 18.726562 -5.875 20.195312 -6.101562 21 -6.5625 C 21.800781 -7.019531 22.203125 -7.828125 22.203125 -8.984375 C 22.203125 -9.296875 22.085938 -9.59375 21.859375 -9.875 C 21.640625 -10.15625 21.289062 -10.398438 20.8125 -10.609375 C 20.34375 -10.816406 19.867188 -11.003906 19.390625 -11.171875 C 18.921875 -11.347656 18.3125 -11.523438 17.5625 -11.703125 C 16.8125 -11.878906 16.179688 -12.019531 15.671875 -12.125 C 15.160156 -12.226562 14.492188 -12.347656 13.671875 -12.484375 C 12.847656 -12.628906 12.28125 -12.738281 11.96875 -12.8125 C 10.144531 -13.125 8.5 -13.613281 7.03125 -14.28125 C 3.5 -15.78125 1.734375 -18.109375 1.734375 -21.265625 C 1.734375 -24.453125 2.695312 -26.863281 4.625 -28.5 C 6.789062 -30.363281 10.359375 -31.296875 15.328125 -31.296875 C 19.179688 -31.296875 22.515625 -30.453125 25.328125 -28.765625 C 28.148438 -27.085938 29.5625 -24.757812 29.5625 -21.78125 L 20.15625 -21.78125 C 19.976562 -23.988281 18.382812 -25.09375 15.375 -25.09375 C 13.664062 -25.09375 12.3125 -24.863281 11.3125 -24.40625 C 10.3125 -23.957031 9.8125 -23.4375 9.8125 -22.84375 C 9.8125 -22.414062 9.957031 -22.007812 10.25 -21.625 C 10.550781 -21.238281 11.023438 -20.894531 11.671875 -20.59375 C 12.328125 -20.300781 12.929688 -20.050781 13.484375 -19.84375 C 14.046875 -19.632812 14.816406 -19.414062 15.796875 -19.1875 C 16.773438 -18.957031 17.5 -18.796875 17.96875 -18.703125 C 18.445312 -18.617188 19.144531 -18.492188 20.0625 -18.328125 C 21.8125 -17.972656 23.453125 -17.5 24.984375 -16.90625 C 28.523438 -15.46875 30.296875 -13.265625 30.296875 -10.296875 Z M 30.296875 -10.296875 "/></g></g></g></svg>
